<?xml version="1.0" standalone="no"?>
<!DOCTYPE svg PUBLIC "-//W3C//DTD SVG 20010904//EN"
 "http://www.w3.org/TR/2001/REC-SVG-20010904/DTD/svg10.dtd">
<svg version="1.0" xmlns="http://www.w3.org/2000/svg"
 width="83.000000pt" height="81.000000pt" viewBox="0 0 83.000000 81.000000"
 preserveAspectRatio="xMidYMid meet">

<g transform="translate(0.000000,81.000000) scale(0.100000,-0.100000)"
fill="#000000" stroke="none">
<path d="M257 766 c-99 -41 -174 -113 -219 -212 -19 -41 -23 -66 -23 -154 0
-97 2 -110 32 -172 40 -85 106 -151 191 -191 61 -29 75 -32 167 -32 91 0 106
3 165 31 227 108 301 394 154 597 -42 58 -112 110 -182 137 -77 29 -207 28
-285 -4z m200 -168 c49 -90 166 -174 268 -194 l40 -7 -50 -12 c-147 -34 -279
-168 -301 -306 l-7 -42 -14 53 c-37 147 -168 275 -303 296 l-43 7 54 17 c68
21 127 51 169 87 49 41 107 137 121 200 l13 55 13 -53 c7 -28 25 -74 40 -101z"/>
</g>
</svg>
