<?xml version="1.0" encoding="UTF-8"?> <svg xmlns="http://www.w3.org/2000/svg" width="2400" height="2400" viewBox="0 0 2400 2400" fill="none"> <g clip-path="url(#clip0_1095_6941)"> <path d="M720 2160L721.14 2160C853.05 2160 960 2266.95 960 2398.86L960 2400L958.86 2400C826.95 2400 720 2293.05 720 2161.14L720 2160Z" fill="#D1E31E"></path> <path d="M480 2400L480 2398.86C480 2266.95 586.95 2160 718.86 2160L720 2160L720 2161.14C720 2293.05 613.05 2400 481.14 2400L480 2400Z" fill="#D1E31E"></path> <path d="M240 2160L241.14 2160C373.05 2160 480 2266.95 480 2398.86L480 2400L478.86 2400C346.95 2400 240 2293.05 240 2161.14L240 2160Z" fill="#D1E31E"></path> <path d="M0 2400L-9.9662e-08 2398.86C-1.16316e-05 2266.95 106.95 2160 238.86 2160L240 2160L240 2161.14C240 2293.05 133.05 2400 1.14001 2400L0 2400Z" fill="#D1E31E"></path> <path d="M240 2160L238.86 2160C106.95 2160 -9.34986e-06 2053.05 -2.08818e-05 1921.14L-2.09815e-05 1920L1.13999 1920C133.05 1920 240 2026.95 240 2158.86L240 2160Z" fill="#D1E31E"></path> <path d="M480 1920L480 1921.14C480 2053.05 373.05 2160 241.14 2160L240 2160L240 2158.86C240 2026.95 346.95 1920 478.86 1920L480 1920Z" fill="#D1E31E"></path> <path d="M720 2160L718.86 2160C586.95 2160 480 2053.05 480 1921.14L480 1920L481.14 1920C613.05 1920 720 2026.95 720 2158.86L720 2160Z" fill="#D1E31E"></path> <path d="M480 1920L480 1918.86C480 1786.95 586.95 1680 718.86 1680L720 1680L720 1681.14C720 1813.05 613.05 1920 481.14 1920L480 1920Z" fill="#D1E31E"></path> <path d="M240 1680L241.14 1680C373.05 1680 480 1786.95 480 1918.86L480 1920L478.86 1920C346.95 1920 240 1813.05 240 1681.14L240 1680Z" fill="#D1E31E"></path> <path d="M0 1920L-9.96632e-08 1918.86C-1.16316e-05 1786.95 106.95 1680 238.86 1680L240 1680L240 1681.14C240 1813.05 133.05 1920 1.14001 1920L0 1920Z" fill="#D1E31E"></path> <path d="M240 1680L238.86 1680C106.95 1680 -9.34987e-06 1573.05 -2.08818e-05 1441.14L-2.09815e-05 1440L1.13999 1440C133.05 1440 240 1546.95 240 1678.86L240 1680Z" fill="#D1E31E"></path> <path d="M480 1440L480 1441.14C480 1573.05 373.05 1680 241.14 1680L240 1680L240 1678.86C240 1546.95 346.95 1440 478.86 1440L480 1440Z" fill="#D1E31E"></path> <path d="M720 1680L718.86 1680C586.95 1680 480 1573.05 480 1441.14L480 1440L481.14 1440C613.05 1440 720 1546.95 720 1678.86L720 1680Z" fill="#D1E31E"></path> <path d="M720 1200L721.14 1200C853.05 1200 960 1306.95 960 1438.86L960 1440L958.86 1440C826.95 1440 720 1333.05 720 1201.14L720 1200Z" fill="#D1E31E"></path> <path d="M480 1440L480 1438.86C480 1306.95 586.95 1200 718.86 1200L720 1200L720 1201.14C720 1333.05 613.05 1440 481.14 1440L480 1440Z" fill="#D1E31E"></path> <path d="M240 1200L241.14 1200C373.05 1200 480 1306.95 480 1438.86L480 1440L478.86 1440C346.95 1440 240 1333.05 240 1201.14L240 1200Z" fill="#D1E31E"></path> <path d="M0 1440L-9.96633e-08 1438.86C-1.16316e-05 1306.95 106.95 1200 238.86 1200L240 1200L240 1201.14C240 1333.05 133.05 1440 1.14001 1440L0 1440Z" fill="#D1E31E"></path> <path d="M240 1200L238.86 1200C106.95 1200 -9.34986e-06 1093.05 -2.08818e-05 961.14L-2.09815e-05 960L1.13999 960C133.05 960 240 1066.95 240 1198.86L240 1200Z" fill="#D1E31E"></path> <path d="M480 960L480 961.14C480 1093.05 373.05 1200 241.14 1200L240 1200L240 1198.86C240 1066.95 346.95 960 478.86 960L480 960Z" fill="#D1E31E"></path> <path d="M720 1200L718.86 1200C586.95 1200 480 1093.05 480 961.14L480 960L481.14 960C613.05 960 720 1066.95 720 1198.86L720 1200Z" fill="#D1E31E"></path> <path d="M960 960L960 961.14C960 1093.05 853.05 1200 721.14 1200L720 1200L720 1198.86C720 1066.95 826.95 960 958.86 960L960 960Z" fill="#D1E31E"></path> <path d="M720 720L721.14 720C853.05 720 960 826.95 960 958.86L960 960L958.86 960C826.95 960 720 853.05 720 721.14L720 720Z" fill="#D1E31E"></path> <path d="M480 960L480 958.86C480 826.95 586.95 720 718.86 720L720 720L720 721.14C720 853.05 613.05 960 481.14 960L480 960Z" fill="#D1E31E"></path> <path d="M240 720L241.14 720C373.05 720 480 826.95 480 958.86L480 960L478.86 960C346.95 960 240 853.05 240 721.14L240 720Z" fill="#D1E31E"></path> <path d="M0 960L-9.96633e-08 958.86C-1.16316e-05 826.95 106.95 720 238.86 720L240 720L240 721.14C240 853.05 133.05 960 1.14001 960L0 960Z" fill="#D1E31E"></path> <path d="M240 720L238.86 720C106.95 720 -9.34986e-06 613.05 -2.08818e-05 481.14L-2.09815e-05 480L1.13999 480C133.05 480 240 586.95 240 718.86L240 720Z" fill="#D1E31E"></path> <path d="M480 480L480 481.14C480 613.05 373.05 720 241.14 720L240 720L240 718.86C240 586.95 346.95 480 478.86 480L480 480Z" fill="#D1E31E"></path> <path d="M720 720L718.86 720C586.95 720 480 613.05 480 481.14L480 480L481.14 480C613.05 480 720 586.95 720 718.86L720 720Z" fill="#D1E31E"></path> <path d="M960 480L960 481.14C960 613.05 853.05 720 721.14 720L720 720L720 718.86C720 586.95 826.95 480 958.86 480L960 480Z" fill="#D1E31E"></path> <path d="M1200 720L1198.86 720C1066.95 720 960 613.05 960 481.14L960 480L961.14 480C1093.05 480 1200 586.95 1200 718.86L1200 720Z" fill="#D1E31E"></path> <path d="M960 480L960 478.86C960 346.95 1066.95 240 1198.86 240L1200 240L1200 241.14C1200 373.05 1093.05 480 961.14 480L960 480Z" fill="#D1E31E"></path> <path d="M720 240L721.14 240C853.05 240 960 346.95 960 478.86L960 480L958.86 480C826.95 480 720 373.05 720 241.14L720 240Z" fill="#D1E31E"></path> <path d="M480 480L480 478.86C480 346.95 586.95 240 718.86 240L720 240L720 241.14C720 373.05 613.05 480 481.14 480L480 480Z" fill="#D1E31E"></path> <path d="M240 240L241.14 240C373.05 240 480 346.95 480 478.86L480 480L478.86 480C346.95 480 240 373.05 240 241.14L240 240Z" fill="#D1E31E"></path> <path d="M0 480L-9.96633e-08 478.86C-1.16316e-05 346.95 106.95 240 238.86 240L240 240L240 241.14C240 373.05 133.05 480 1.14001 480L0 480Z" fill="#D1E31E"></path> <path d="M240 240L238.86 240C106.95 240 -9.34986e-06 133.05 -2.08818e-05 1.14004L-2.09815e-05 2.09815e-05L1.13999 2.08818e-05C133.05 9.34986e-06 240 106.95 240 238.86L240 240Z" fill="#D1E31E"></path> <path d="M480 0L480 1.14001C480 133.05 373.05 240 241.14 240L240 240L240 238.86C240 106.95 346.95 1.16316e-05 478.86 9.96633e-08L480 0Z" fill="#D1E31E"></path> <path d="M720 240L718.86 240C586.95 240 480 133.05 480 1.14004L480 2.09815e-05L481.14 2.08818e-05C613.05 9.34986e-06 720 106.95 720 238.86L720 240Z" fill="#D1E31E"></path> <path d="M960 0L960 1.14001C960 133.05 853.05 240 721.14 240L720 240L720 238.86C720 106.95 826.95 1.16316e-05 958.86 9.96633e-08L960 0Z" fill="#D1E31E"></path> <path d="M1200 240L1198.86 240C1066.95 240 960 133.05 960 1.14004L960 2.09815e-05L961.14 2.08818e-05C1093.05 9.34986e-06 1200 106.95 1200 238.86L1200 240Z" fill="#D1E31E"></path> <path d="M1440 0L1440 1.14001C1440 133.05 1333.05 240 1201.14 240L1200 240L1200 238.86C1200 106.95 1306.95 1.16316e-05 1438.86 9.96633e-08L1440 0Z" fill="#D1E31E"></path> </g> <defs> <clipPath id="clip0_1095_6941"> <rect width="600" height="600" fill="white" transform="translate(2400 2400) scale(4) rotate(180)"></rect> </clipPath> </defs> </svg> 