<?xml version="1.0" standalone="no"?>
<!DOCTYPE svg PUBLIC "-//W3C//DTD SVG 20010904//EN"
 "http://www.w3.org/TR/2001/REC-SVG-20010904/DTD/svg10.dtd">
<svg version="1.0" xmlns="http://www.w3.org/2000/svg"
 width="102.000000pt" height="122.000000pt" viewBox="0 0 102.000000 122.000000"
 preserveAspectRatio="xMidYMid meet">

<g transform="translate(0.000000,122.000000) scale(0.100000,-0.100000)"
fill="#000000" stroke="none">
<path d="M20 1142 c0 -30 -44 -2 587 -366 201 -116 202 -117 228 -100 l26 17
-93 51 c-125 70 -163 91 -373 211 -99 57 -202 115 -229 130 -28 15 -72 41 -98
56 l-48 28 0 -27z"/>
<path d="M865 1109 c-55 -32 -153 -89 -217 -126 -103 -59 -116 -70 -101 -80 9
-7 23 -13 31 -13 20 0 383 211 389 226 2 7 3 21 1 32 -3 18 -13 14 -103 -39z"/>
<path d="M806 965 c-88 -52 -164 -99 -169 -104 -7 -7 -1 -14 16 -22 24 -11 33
-8 84 23 32 19 97 57 145 84 82 46 88 51 88 82 0 17 -1 32 -2 32 -2 -1 -75
-43 -162 -95z"/>
<path d="M20 1022 c0 -26 21 -40 333 -219 258 -148 336 -189 350 -181 9 5 17
12 17 16 0 4 -53 38 -117 76 -65 38 -143 84 -173 102 -185 109 -401 234 -405
234 -3 0 -5 -13 -5 -28z"/>
<path d="M20 902 c0 -27 7 -35 58 -63 31 -18 157 -90 279 -161 190 -110 226
-127 243 -118 11 6 20 14 20 18 0 6 -558 336 -592 350 -4 2 -8 -10 -8 -26z"/>
<path d="M856 870 c-123 -73 -126 -76 -94 -91 23 -10 35 -6 117 42 79 47 91
58 91 82 0 15 -3 27 -7 26 -5 0 -52 -27 -107 -59z"/>
<path d="M897 773 c-58 -35 -59 -35 -36 -50 20 -15 25 -14 65 8 36 19 44 29
44 51 0 16 -3 28 -7 27 -5 0 -34 -16 -66 -36z"/>
<path d="M22 773 c3 -25 28 -42 227 -156 206 -118 226 -128 248 -116 12 7 23
15 23 19 0 3 -30 23 -67 43 -94 51 -165 91 -253 142 -125 71 -169 95 -175 95
-4 0 -5 -12 -3 -27z"/>
<path d="M723 602 c-9 -6 -13 -76 -15 -260 -2 -139 0 -252 3 -252 3 0 13 8 22
18 15 16 17 49 17 260 0 133 -3 242 -7 242 -5 0 -13 -4 -20 -8z"/>
<path d="M280 351 l0 -219 25 -16 25 -16 0 219 0 219 -25 16 -25 16 0 -219z"/>
<path d="M617 538 c-16 -12 -17 -34 -15 -261 3 -235 4 -247 21 -235 16 12 17
34 15 261 -3 235 -4 247 -21 235z"/>
<path d="M388 282 c3 -204 4 -218 22 -230 20 -12 20 -8 20 206 0 216 -4 242
-34 242 -8 0 -10 -71 -8 -218z"/>
<path d="M512 474 c-22 -15 -22 -19 -22 -245 l0 -229 25 0 25 0 0 245 c0 135
-1 245 -3 245 -1 0 -13 -7 -25 -16z"/>
<path d="M56 449 c-10 -49 -6 -57 9 -19 17 43 17 50 6 50 -5 0 -11 -14 -15
-31z"/>
<path d="M925 460 c-4 -6 -10 -8 -14 -5 -5 2 -13 -7 -20 -22 -10 -22 -10 -25
2 -15 8 7 16 10 18 8 2 -3 9 6 16 20 11 24 10 33 -2 14z"/>
<path d="M841 453 c0 -6 -4 -20 -7 -30 -5 -14 -4 -15 5 -7 7 7 11 20 8 30 -3
11 -5 14 -6 7z"/>
<path d="M997 441 c-4 -17 -3 -21 5 -13 5 5 8 16 6 23 -3 8 -7 3 -11 -10z"/>
<path d="M110 445 c0 -5 5 -17 10 -25 5 -8 10 -10 10 -5 0 6 -5 17 -10 25 -5
8 -10 11 -10 5z"/>
<path d="M941 434 c0 -11 3 -14 6 -6 3 7 2 16 -1 19 -3 4 -6 -2 -5 -13z"/>
<path d="M152 420 c0 -14 2 -19 5 -12 2 6 2 18 0 25 -3 6 -5 1 -5 -13z"/>
</g>
</svg>
